<svg width="15" height="13" viewBox="0 0 15 13" fill="none" xmlns="http://www.w3.org/2000/svg">
<path fill-rule="evenodd" clip-rule="evenodd" d="M6.99333 0.21967C7.28622 0.512563 7.28622 0.987437 6.99333 1.28033L2.56066 5.713H14.064C14.4782 5.713 14.814 6.04879 14.814 6.463C14.814 6.87721 14.4782 7.213 14.064 7.213H2.56066L6.99333 11.6457C7.28622 11.9386 7.28622 12.4134 6.99333 12.7063C6.70044 12.9992 6.22556 12.9992 5.93267 12.7063L0.21967 6.99333C0.0790176 6.85268 0 6.66191 0 6.463C0 6.26409 0.0790176 6.07332 0.21967 5.93267L5.93267 0.21967C6.22556 -0.0732233 6.70044 -0.0732233 6.99333 0.21967Z" fill="#A7A5A5"/>
</svg>
